# File created by Blade
# Date/Time:  Thu Jan 22 16:21:39 2015
# Frame Rate: 120.000 fps
#------------------------------------------------------
:FULLY-SPECIFIED
:DEGREES
1559
root -13.505762 34.318117 -4.137291 -0.866886 16.336348 4.389124
RightUpLeg -20.352095 1.474894 15.056769
RightLeg 15.475276 -0.000000 -0.000000
RightFoot -6.637891 -28.344826 4.099458
RightToeBase 11.950852 -0.000000 -0.000000
LeftUpLeg 20.435769 -2.409012 -26.144658
LeftLeg -0.330605 -0.000000 0.000000
LeftFoot -8.353222 -0.016237 -2.010477
LeftToeBase -2.757338 -0.000000 0.000000
Spine 18.329654 -13.900071 14.833993
RightShoulder -2.402552 -11.185810 -19.294003
RightArm 8.527884 25.551789 64.516561
RightForeArm 21.343389 -0.000000 26.386080
RightHand 8.849827 0.000000 -20.059051
RightHandThumb1 -24.326973 -0.000000 -32.862282
LeftShoulder -26.213359 18.137023 38.818374
LeftArm 110.685974 -68.004249 -72.691033
LeftForeArm 29.781219 -0.000000 31.501241
LeftHand -16.700066 0.000000 13.098211
LeftHandThumb1 -26.253704 0.000000 33.147579
Head 25.257387 8.876677 31.807492
1560
root -13.483010 34.327997 -4.076096 -0.865727 16.426114 4.280430
RightUpLeg -20.293434 1.428130 15.148239
RightLeg 15.500559 -0.000000 -0.000000
RightFoot -6.790355 -28.391597 4.116186
RightToeBase 11.926368 -0.000000 -0.000000
LeftUpLeg 20.516257 -2.449694 -26.044297
LeftLeg -0.304017 -0.000000 0.000000
LeftFoot -8.252448 -0.002628 -2.069475
LeftToeBase -2.922993 -0.000000 0.000000
Spine 18.236300 -13.866606 14.571243
RightShoulder -2.503432 -11.165218 -19.544377
RightArm 8.390896 25.825933 64.195168
RightForeArm 21.333567 -0.000000 26.405851
RightHand 8.854400 0.000000 -20.175213
RightHandThumb1 -24.326973 -0.000000 -32.862282
LeftShoulder -26.252776 18.272757 38.648126
LeftArm 110.019439 -67.890050 -72.412145
LeftForeArm 29.759257 -0.000000 31.425019
LeftHand -16.819432 -0.000000 12.708801
LeftHandThumb1 -26.253704 0.000000 33.147579
Head 25.163504 8.965748 31.317861
1561
root -13.459480 34.337405 -4.017575 -0.877095 16.560270 4.178139
RightUpLeg -20.243654 1.305349 15.232126
RightLeg 15.526339 -0.000000 -0.000000
RightFoot -6.972193 -28.408842 4.211164
RightToeBase 11.973587 -0.000000 -0.000000
LeftUpLeg 20.580458 -2.454759 -25.923192
LeftLeg -0.201124 -0.000000 0.000000
LeftFoot -8.144250 -0.104681 -2.058857
LeftToeBase -2.957434 -0.000000 0.000000
Spine 18.195405 -13.834558 14.301503
RightShoulder -2.691401 -11.134737 -19.769529
RightArm 8.276462 26.047249 63.866301
RightForeArm 21.330134 -0.000000 26.405949
RightHand 8.882396 0.000000 -20.185684
RightHandThumb1 -24.326973 -0.000000 -32.862282
LeftShoulder -26.279113 18.399867 38.462679
LeftArm 109.297969 -67.879354 -72.047952
LeftForeArm 29.765326 -0.000000 31.323589
LeftHand -16.835004 -0.000000 12.621573
LeftHandThumb1 -26.253704 0.000000 33.147579
Head 25.067764 9.253059 30.978818
1562
root -13.435889 34.346503 -3.958989 -0.884516 16.625889 4.087064
RightUpLeg -20.198040 1.272440 15.302477
RightLeg 15.585541 -0.000000 -0.000000
RightFoot -7.145693 -28.471175 4.303157
RightToeBase 12.010774 -0.000000 -0.000000
LeftUpLeg 20.646530 -2.451655 -25.841432
LeftLeg -0.149715 -0.000000 0.000000
LeftFoot -8.010425 -0.060795 -1.983428
LeftToeBase -3.331650 -0.000000 0.000000
Spine 18.161342 -13.775403 13.997259
RightShoulder -2.783743 -11.113566 -19.997259
RightArm 8.146151 26.294245 63.550194
RightForeArm 21.442567 -0.000000 26.437882
RightHand 8.949308 -0.000000 -20.381064
RightHandThumb1 -24.326973 -0.000000 -32.862282
LeftShoulder -26.336583 18.490259 38.310211
LeftArm 108.517675 -67.784680 -71.638484
LeftForeArm 29.750379 -0.000000 31.226030
LeftHand -16.778784 -0.000000 12.500615
LeftHandThumb1 -26.253704 0.000000 33.147579
Head 24.942241 9.387023 30.521044
1563
root -13.410275 34.356868 -3.898388 -0.875464 16.725739 3.968596
RightUpLeg -20.181497 1.210092 15.392030
RightLeg 15.656889 -0.000000 -0.000000
RightFoot -7.308562 -28.444315 4.379904
RightToeBase 11.992585 -0.000000 -0.000000
LeftUpLeg 20.687849 -2.432172 -25.703302
LeftLeg -0.057524 -0.000000 0.000000
LeftFoot -7.901572 -0.149989 -1.918144
LeftToeBase -3.531635 -0.000000 0.000000
Spine 18.080150 -13.791743 13.747133
RightShoulder -2.864485 -11.041206 -20.242317
RightArm 7.991113 26.507573 63.199720
RightForeArm 21.488991 0.000000 26.447694
RightHand 9.018895 -0.000000 -20.546751
RightHandThumb1 -24.326973 -0.000000 -32.862282
LeftShoulder -26.422868 18.594808 38.133227
LeftArm 107.766240 -67.644744 -71.297143
LeftForeArm 29.826210 -0.000000 31.162038
LeftHand -16.810707 -0.000000 12.101973
LeftHandThumb1 -26.253704 0.000000 33.147579
Head 24.871477 9.533473 30.033859
